# xmcd
#
# Track frame offsets:
#	182
#	60650
#	120347
#	143452
#	162042
#	181620
#	207490
#	225637
#	234565
#	245062
#	256617
#
# Disc length: 3470 seconds
#
# Revision: 3
# Processed by: cddbd v1.5.2PL0 Copyright (c) Steve Scherf et al.
# Submitted via: EZCDAudioConverter 2.1.7.1
#
DISCID=850d8c0b
DTITLE=Brahms Johannes  - Alto Rhapsody - Four Serious Songs and Five Songs - Or
DTITLE=ch. de la Suisse Romande - Ernest Ansermet - 340 .flac
DYEAR=1996
DGENRE=country
TTITLE0=Brahms  - Alto Rhapsody Op. 53
TTITLE1=Nänie Op. 82
TTITLE2=Four Serious Songs Op. 121 - Denn Es Gehet Dem Menschen
TTITLE3=Four Serious Songs Op. 121 - Ich Wandte Mich
TTITLE4=Four Serious Songs Op. 121 - O Tod, Wie Bitter Bist Du
TTITLE5=Four Serious Songs Op. 121 - Wenn Ich Mit Menschen
TTITLE6=Five Songs Op. 94 - Mir Vierzig Jahren
TTITLE7=Five Songs Op. 94 - Steig Auf, Geliebter Schatten
TTITLE8=Five Songs Op. 94 - Mein Herz Ist Schwer
TTITLE9=Five Songs Op. 94 - Sapphische Ode
TTITLE10=Five Songs Op. 94 - Kein Haus, Keine Heiner
EXTD=
EXTT0=
EXTT1=
EXTT2=
EXTT3=
EXTT4=
EXTT5=
EXTT6=
EXTT7=
EXTT8=
EXTT9=
EXTT10=
PLAYORDER=
